<svg width="726" height="541" viewBox="0 0 726 541" fill="none" xmlns="http://www.w3.org/2000/svg">
<path d="M725.627 475.431H0V475.794H725.627V475.431Z" fill="#E6E6E6"/>
<path d="M181.146 497.399H133.08V497.762H181.146V497.399Z" fill="#E6E6E6"/>
<path d="M117.871 497.399H90.0213V497.762H117.871V497.399Z" fill="#E6E6E6"/>
<path d="M305.562 502.742H277.712V503.105H305.562V502.742Z" fill="#E6E6E6"/>
<path d="M450.774 510.844H388.094V511.207H450.774V510.844Z" fill="#E6E6E6"/>
<path d="M375.178 510.844H365.992V511.207H375.178V510.844Z" fill="#E6E6E6"/>
<path d="M657.926 502.742H521.973V503.105H657.926V502.742Z" fill="#E6E6E6"/>
<path d="M343.962 410.676H63.7246C59.1531 410.676 55.4379 406.959 55.4379 402.385V8.29046C55.4379 3.71692 59.1531 0 63.7246 0H343.962C348.533 0 352.248 3.71692 352.248 8.29046V402.385C352.248 406.959 348.533 410.676 343.962 410.676ZM63.7246 0.36298C59.3563 0.36298 55.8007 3.92018 55.8007 8.29046V402.385C55.8007 406.755 59.3563 410.313 63.7246 410.313H343.962C348.33 410.313 351.886 406.755 351.886 402.385V8.29046C351.886 3.92018 348.33 0.36298 343.962 0.36298H63.7246Z" fill="#E6E6E6"/>
<path d="M657.868 410.676H377.631C373.059 410.676 369.344 406.959 369.344 402.385V8.29046C369.344 3.71692 373.059 0 377.631 0H657.868C662.439 0 666.155 3.71692 666.155 8.29046V402.385C666.155 406.959 662.439 410.676 657.868 410.676ZM377.631 0.36298C373.263 0.36298 369.707 3.92018 369.707 8.29046V402.385C369.707 406.755 373.263 410.313 377.631 410.313H657.868C662.236 410.313 665.792 406.755 665.792 402.385V8.29046C665.792 3.92018 662.236 0.36298 657.868 0.36298H377.631Z" fill="#E6E6E6"/>
<path d="M388.065 351.394H356.152V478.045H388.065V351.394Z" fill="#E0E0E0"/>
<path d="M381.999 478.059H388.065V460.81H375.643L381.999 478.059Z" fill="#FAFAFA"/>
<path d="M248.222 351.394H216.309V478.045H248.222V351.394Z" fill="#E0E0E0"/>
<path d="M388.065 351.394H242.94V467.46H388.065V351.394Z" fill="#FAFAFA"/>
<path d="M382.797 357.1V387.808H248.193V357.1H382.797ZM383.363 356.534H247.642V388.36H383.363V356.534Z" fill="#E0E0E0"/>
<path d="M249.006 478.059H242.94V460.81H255.348L249.006 478.059Z" fill="#FAFAFA"/>
<path d="M312.295 372.461C312.295 374.232 313.732 375.67 315.503 375.67C317.273 375.67 318.71 374.232 318.71 372.461C318.71 370.69 317.273 369.252 315.503 369.252C313.732 369.252 312.295 370.69 312.295 372.461Z" fill="#E6E6E6"/>
<path d="M382.797 394.08V424.788H248.193V394.08H382.797ZM383.363 393.514H247.642V425.34H383.363V393.514Z" fill="#E0E0E0"/>
<path d="M312.295 409.442C312.295 411.213 313.732 412.65 315.503 412.65C317.273 412.65 318.71 411.213 318.71 409.442C318.71 407.67 317.273 406.233 315.503 406.233C313.732 406.233 312.295 407.67 312.295 409.442Z" fill="#E6E6E6"/>
<path d="M382.797 431.061V461.769H248.193V431.061H382.797ZM383.363 430.494H247.642V462.32H383.363V430.494Z" fill="#E0E0E0"/>
<path d="M312.295 446.407C312.295 448.179 313.732 449.616 315.503 449.616C317.273 449.616 318.71 448.179 318.71 446.407C318.71 444.636 317.273 443.199 315.503 443.199C313.732 443.199 312.295 444.636 312.295 446.407Z" fill="#E6E6E6"/>
<path d="M228.732 277.839H196.819V478.059H228.732V277.839Z" fill="#E0E0E0"/>
<path d="M222.666 478.059H228.732V460.81H216.309L222.666 478.059Z" fill="#FAFAFA"/>
<path d="M109.468 277.839H77.555V478.059H109.468V277.839Z" fill="#E0E0E0"/>
<path d="M228.732 277.839H104.171V467.475H228.732V277.839Z" fill="#FAFAFA"/>
<path d="M223.363 283.212V326.145H109.541V283.212H223.377M224.045 282.544H108.873V326.798H224.03V282.544H224.045Z" fill="#E0E0E0"/>
<path d="M223.362 331.372V445.26H169.144V331.372H223.362ZM224.03 330.704H168.491V445.914H224.03V330.704Z" fill="#E0E0E0"/>
<path d="M163.759 331.372V445.26H109.541V331.372H163.759ZM164.427 330.704H108.888V445.914H164.427V330.704Z" fill="#E0E0E0"/>
<path d="M110.237 478.059H104.171V460.81H116.594L110.237 478.059Z" fill="#FAFAFA"/>
<path d="M163.237 304.685C163.237 306.457 164.674 307.894 166.444 307.894C168.215 307.894 169.652 306.457 169.652 304.685C169.652 302.914 168.215 301.477 166.444 301.477C164.674 301.477 163.237 302.914 163.237 304.685Z" fill="#E6E6E6"/>
<path d="M174.731 385.586C174.731 387.358 176.168 388.795 177.938 388.795C179.709 388.795 181.146 387.358 181.146 385.586C181.146 383.815 179.709 382.378 177.938 382.378C176.168 382.378 174.731 383.815 174.731 385.586Z" fill="#E6E6E6"/>
<path d="M151.758 385.586C151.758 387.358 153.194 388.795 154.965 388.795C156.735 388.795 158.172 387.358 158.172 385.586C158.172 383.815 156.735 382.378 154.965 382.378C153.194 382.378 151.758 383.815 151.758 385.586Z" fill="#E6E6E6"/>
<path d="M148.13 222.028H134.662C134.662 222.028 136.998 234.471 136.998 241.803C136.998 249.135 126.753 277.854 141.396 277.854C156.039 277.854 145.793 249.135 145.793 241.803C145.793 234.471 148.13 222.028 148.13 222.028Z" fill="#E0E0E0"/>
<path d="M96.9438 251.473V260.228C96.9438 269.926 104.868 277.854 114.562 277.854H123.313C133.007 277.854 140.931 269.926 140.931 260.228V251.473H96.9438Z" fill="#F5F5F5"/>
<path d="M283.967 332.94C283.967 343.089 295.33 351.394 309.219 351.394H321.758C335.646 351.394 347.009 343.089 347.009 332.94H283.967Z" fill="#E0E0E0"/>
<path d="M616.217 318.087C608.612 324.301 598.12 335.669 588.498 351.67C582.098 362.327 578.238 373.492 576.54 388.243C576.583 371.546 576.627 353.615 576.685 336.686C578.615 332.33 583.027 322.283 586.191 314.355C596.756 287.887 600.689 281.382 610.18 258.543C622.849 228.097 635.823 191.958 632.108 194.848C624.533 200.728 595.508 255.102 592.373 262.885C581.576 289.658 578.571 309.172 576.714 328.003C576.772 312.105 576.83 297.499 576.888 286.232C577.077 249.483 577.701 237.621 578.005 233.962C579.181 232.104 580.56 229.941 581.372 228.765C588.193 218.906 590.82 210.499 597.249 195.791C606.348 174.942 614.2 137.932 611.907 139.805C602.358 147.573 594.84 164.285 584.942 185.584C575.045 206.87 577.875 219.124 575.916 237.302C575.509 240.874 575.19 254.333 574.958 273.005C572.389 253.113 567.585 240.017 558.805 228.111C548.008 213.461 537.559 203.574 529.896 198.405C522.234 193.236 543.132 229.215 553.131 244.91C562.027 258.892 570.227 271.233 574.856 283.386C574.609 308.678 574.493 340.708 574.493 370.53C572.2 356.955 568.456 342.348 563.464 331.038C557.456 317.448 548.226 296.598 540.882 289.513C539.112 287.814 548.574 328.366 554.64 339.154C560.706 349.942 565.162 360.105 568.979 366.218C569.864 367.641 572.824 373.144 574.508 376.309C574.522 412.708 574.711 444.825 575.03 455.758H576.598C576.496 452.941 576.467 434.415 576.511 409.906C580.298 396.607 588.948 381.419 596.103 367.568C603.896 352.454 623.836 311.873 616.231 318.087H616.217Z" fill="#E0E0E0"/>
<path d="M598.555 478.059H553.073L549.633 433.456H601.995L598.555 478.059Z" fill="#F0F0F0"/>
<path d="M605.376 438.654H546.252L544.554 423.598H607.074L605.376 438.654Z" fill="#F5F5F5"/>
<path d="M180.333 29.8224H98.9901V119.188H180.333V29.8224Z" fill="#E0E0E0"/>
<path d="M189.142 29.8224H105.114V119.188H189.142V29.8224Z" fill="#F5F5F5"/>
<path d="M182.103 112.161V36.8788L112.153 36.8788V112.161H182.103Z" fill="white"/>
<path d="M165.153 93.8957V55.1149H129.118V93.8957H165.153Z" fill="#F5F5F5"/>
<path d="M595.087 40.2472H519.52V123.268H595.087V40.2472Z" fill="#E0E0E0"/>
<path d="M603.272 40.2472H525.223V123.268H603.272V40.2472Z" fill="#F5F5F5"/>
<path d="M596.741 116.72V46.7954L531.768 46.7954V116.72H596.741Z" fill="white"/>
<path d="M564.248 102.041C575.445 102.041 584.522 92.9598 584.522 81.7576C584.522 70.5555 575.445 61.4743 564.248 61.4743C553.051 61.4743 543.974 70.5555 543.974 81.7576C543.974 92.9598 553.051 102.041 564.248 102.041Z" fill="#F5F5F5"/>
<path d="M264.839 83.1079H204.496V149.403H264.839V83.1079Z" fill="#E0E0E0"/>
<path d="M271.37 83.1079H209.039V149.403H271.37V83.1079Z" fill="#F5F5F5"/>
<path d="M266.145 144.176V88.3348H214.263V144.176H266.145Z" fill="white"/>
<path d="M240.212 102.143L226.018 126.738H254.405L240.212 102.143Z" fill="#F5F5F5"/>
<path d="M362.814 541C518.217 541 644.197 533.641 644.197 524.564C644.197 515.487 518.217 508.129 362.814 508.129C207.41 508.129 81.4299 515.487 81.4299 524.564C81.4299 533.641 207.41 541 362.814 541Z" fill="#F5F5F5"/>
<path d="M506.85 157.504L492.454 151.668C492.454 151.668 473.457 186.325 468.015 188.082C460.613 190.463 445.303 197.084 436.203 198.318C434.97 199.755 432.953 204.271 433.141 205.926C445.346 209.991 472.165 204.59 477.912 200.321C491.003 190.594 506.85 157.504 506.85 157.504Z" fill="#E58A7B"/>
<path d="M511.277 149.635C513.962 159.566 499.42 179.515 499.42 179.515L480.322 168.8C480.322 168.8 483.877 160.597 488.245 152.248C495.284 138.76 508.229 138.31 511.291 149.635H511.277Z" fill="#0EA5DA"/>
<path opacity="0.2" d="M511.277 149.635C513.962 159.566 499.42 179.515 499.42 179.515L480.322 168.8C480.322 168.8 483.877 160.597 488.245 152.248C495.284 138.76 508.229 138.31 511.291 149.635H511.277Z" fill="black"/>
<path opacity="0.2" d="M487.926 173.069L495.429 177.279L496.735 154.238C492.381 157.591 489.29 167.697 487.926 173.069Z" fill="black"/>
<path d="M498.738 142.158C498.738 142.158 483.906 175.174 492.556 236.648H550.998C551.926 227.676 548.85 183.886 559.981 141.606C559.981 141.606 550.083 139.588 540.563 139.138C533.118 138.775 522.321 138.542 515.718 139.138C507.01 139.922 498.738 142.172 498.738 142.172V142.158Z" fill="#0EA5DA"/>
<path opacity="0.2" d="M498.738 142.158C498.738 142.158 483.906 175.174 492.556 236.648H550.998C551.926 227.676 548.85 183.886 559.981 141.606C559.981 141.606 550.083 139.588 540.563 139.138C533.118 138.775 522.321 138.542 515.718 139.138C507.01 139.922 498.738 142.172 498.738 142.172V142.158Z" fill="black"/>
<g style="mix-blend-mode:multiply">
<path d="M485.183 525.871C485.096 527.425 507.257 528.688 534.671 528.688C562.085 528.688 584.405 527.425 584.493 525.871C584.58 524.317 562.433 523.054 535.005 523.054C507.576 523.054 485.27 524.317 485.183 525.871Z" fill="#E8ECF1"/>
</g>
<path d="M525.589 486.72L515.188 490.728L524.105 513.883L534.505 509.874L525.589 486.72Z" fill="#E58A7B"/>
<path d="M570.415 514.706H559.487L555.482 489.399H566.41L570.415 514.706Z" fill="#E58A7B"/>
<path d="M558.791 513.443H571.068C571.518 513.443 571.881 513.747 571.954 514.183L573.536 523.896C573.695 524.898 572.853 525.856 571.823 525.842C567.542 525.769 565.481 525.523 560.082 525.523C556.759 525.523 549.895 525.871 545.309 525.871C540.723 525.871 540.389 521.341 542.29 520.92C550.823 519.076 554.132 516.535 556.977 514.11C557.485 513.675 558.138 513.443 558.791 513.443Z" fill="#263238"/>
<path d="M522.408 509.61L534.047 506.227C534.482 506.096 534.932 506.285 535.121 506.677L539.431 515.388C539.881 516.288 539.344 517.421 538.343 517.697C534.134 518.844 531.29 519.57 526.007 521.109C522.364 522.169 518.649 523.896 515.05 525.043C512.554 525.842 506.691 525.871 503.658 525.871C499.173 525.871 498.172 521.138 500.088 520.92C504.949 520.368 505.602 520.63 508.287 519.279C512.728 517.058 516.168 515.199 520.013 511.178C520.681 510.481 521.465 509.885 522.393 509.61H522.408Z" fill="#263238"/>
<path d="M438.032 198.216L426.016 193.149L421.067 206.478C421.067 206.478 428.004 207.741 435.928 206.478L438.032 198.216Z" fill="#E58A7B"/>
<path d="M417.076 192.83L416.757 201.686L421.067 206.478L426.016 193.149L417.076 192.83Z" fill="#E58A7B"/>
<path d="M525.615 486.64L515.217 490.656L519.822 502.589L530.219 498.573L525.615 486.64Z" fill="#CF6F64"/>
<path d="M566.41 489.399H555.482L557.557 502.452H568.485L566.41 489.399Z" fill="#CF6F64"/>
<path opacity="0.2" d="M490.698 220.009C490.901 222.637 491.162 225.324 491.467 228.082L534.918 213.969C541.71 211.937 547.602 207.668 551.636 201.846C551.796 197.969 552.028 193.889 552.347 189.635C552.492 187.559 552.681 185.439 552.87 183.29C553.073 181.054 553.32 178.775 553.581 176.466L490.683 220.009H490.698Z" fill="black"/>
<path d="M504.891 172.401L503.411 172.227C504.267 164.982 509.68 159.261 515.384 159.392L515.34 160.887C510.406 160.742 505.66 165.911 504.891 172.401Z" fill="white"/>
<path d="M512.626 185.802C512.539 185.802 512.467 185.802 512.38 185.802L512.423 184.307C517.416 184.496 522.103 179.283 522.872 172.793L524.353 172.967C523.496 180.111 518.272 185.802 512.612 185.802H512.626Z" fill="white"/>
<path d="M539.75 111.13C537.719 119.13 535.295 133.78 540.578 139.123C540.578 139.123 536.891 147.239 522.031 147.239C508.461 147.239 515.732 139.123 515.732 139.123C524.773 136.989 524.933 130.382 523.743 124.168L539.75 111.144V111.13Z" fill="#E58A7B"/>
<path d="M533.22 116.459L523.743 124.168C524.033 125.635 524.236 127.13 524.251 128.582C527.023 131.341 532.581 124.357 533.147 120.785C533.437 118.999 533.452 117.301 533.22 116.473V116.459Z" fill="#CF6F64"/>
<path d="M507.445 111.043C508.839 113.526 511.291 115.079 513.599 115.602C517.082 116.371 518.838 113.177 517.88 109.939C517.009 107.036 514.165 103.13 510.653 103.798C507.199 104.451 505.849 108.197 507.445 111.043Z" fill="#CF6F64"/>
<path d="M513.207 85.4455C507.779 87.9283 505.864 109.504 512.684 112.698C519.505 115.892 523.482 80.7413 513.207 85.4455Z" fill="#263238"/>
<path d="M541.405 99.1081C540.099 109.939 539.896 116.313 534.105 121.86C525.397 130.223 512.322 125.257 510.377 114.455C508.621 104.727 511.045 88.6542 521.885 84.342C532.567 80.1024 542.711 88.2768 541.405 99.1081Z" fill="#E58A7B"/>
<path d="M523.569 91.0499C531.594 88.9882 537.501 87.5944 535.397 94.3022C532.581 103.232 529.214 111.885 533.742 112.292C536.485 112.538 548.69 107.355 547.137 102.128C545.788 97.569 551.462 96.3349 552.507 94.0118C556.266 85.6343 545.512 86.7232 547.428 81.656C549.285 76.7195 538.764 68.3854 532.929 72.4653C523.482 79.0571 507.271 78.9699 515.79 68.1531C521.9 60.4144 511.001 61.997 511.001 61.997C511.001 61.997 517.59 65.9027 506.502 71.9427C494.762 78.3456 505.515 95.667 523.569 91.0499Z" fill="#263238"/>
<path d="M545.599 111.043C543.915 113.526 541.289 115.079 538.909 115.602C535.339 116.371 533.96 113.177 535.295 109.939C536.5 107.036 539.808 103.13 543.233 103.798C546.6 104.451 547.515 108.197 545.599 111.043Z" fill="#E58A7B"/>
<path d="M492.556 236.649C492.556 236.649 482.745 324.49 481.976 357.826C481.178 392.498 515.224 500.68 515.224 500.68L532.654 493.363C532.654 493.363 512.365 394.53 515.181 360.468C518.257 323.343 530.97 236.649 530.97 236.649H492.556Z" fill="#0EA5DA"/>
<path opacity="0.2" d="M516.937 260.765C509.129 276.997 514.382 309.085 518.62 328.119C520.231 314.689 522.147 300.112 523.961 286.624C523.787 265.89 522.176 249.875 516.937 260.765Z" fill="black"/>
<path d="M531.87 487.657C531.957 487.627 533.931 493.217 533.931 493.217L513.846 501.653L510.682 495.758L531.87 487.642V487.657Z" fill="#0EA5DA"/>
<path d="M513.294 236.649C513.294 236.649 520.797 320.192 525.775 351.481C531.217 385.761 552.623 499.925 552.623 499.925H572.636C572.636 499.925 560.648 388.534 558.385 354.588C555.932 317.753 551.027 236.649 551.027 236.649H513.323H513.294Z" fill="#0EA5DA"/>
<path d="M572.926 494.698C573.013 494.698 573.594 500.288 573.594 500.288H551.593L550.025 493.871L572.926 494.698Z" fill="#0EA5DA"/>
<path opacity="0.2" d="M565.263 488.092C565.162 488.092 565.089 488.019 565.075 487.932C564.959 486.916 554.147 386.341 552.115 355.866C549.909 322.776 545.468 249.425 545.425 248.685C545.425 248.583 545.497 248.496 545.599 248.482C545.701 248.482 545.773 248.554 545.788 248.656C545.831 249.396 550.272 322.747 552.478 355.837C554.51 386.312 565.321 486.887 565.438 487.889C565.438 487.99 565.38 488.078 565.278 488.092H565.263Z" fill="black"/>
<path d="M524.802 102.128C524.744 103.014 524.236 103.725 523.671 103.725C523.105 103.725 522.669 103.014 522.727 102.128C522.785 101.242 523.293 100.531 523.859 100.531C524.425 100.531 524.861 101.242 524.802 102.128Z" fill="#263238"/>
<path d="M514.847 102.128C514.789 103.014 514.281 103.725 513.715 103.725C513.149 103.725 512.714 103.014 512.772 102.128C512.83 101.242 513.338 100.531 513.904 100.531C514.47 100.531 514.905 101.242 514.847 102.128Z" fill="#263238"/>
<path d="M517.982 102.564C517.982 102.564 515.674 107.645 513.323 110.099C514.803 111.551 517.488 110.883 517.488 110.883L517.982 102.549V102.564Z" fill="#DF5753"/>
<path d="M518.243 114.6C518.098 114.6 517.996 114.484 517.996 114.339C517.996 114.194 518.127 114.077 518.272 114.077C522.147 114.077 524.106 111.377 524.12 111.348C524.207 111.232 524.367 111.188 524.483 111.275C524.599 111.348 524.628 111.507 524.541 111.638C524.454 111.754 522.393 114.6 518.243 114.6Z" fill="#263238"/>
<path d="M526.573 99.442C526.428 99.5001 526.254 99.4856 526.123 99.3985C524.222 98.1934 522.437 99.0065 522.422 99.0065C522.176 99.1371 521.856 99.021 521.74 98.7596C521.639 98.4983 521.755 98.1934 522.031 98.0627C522.118 98.0192 524.353 97.0028 526.704 98.4983C526.936 98.6435 526.994 98.9629 526.834 99.2097C526.762 99.3114 526.675 99.384 526.573 99.4275V99.442Z" fill="#263238"/>
<path d="M511.001 96.5527C511.001 96.5527 510.856 96.4946 510.798 96.4365C510.595 96.2478 510.595 95.9138 510.798 95.7106C512.83 93.5762 515.166 93.8957 515.268 93.9102C515.543 93.9392 515.732 94.2151 515.674 94.5055C515.616 94.7813 515.34 94.9846 515.065 94.9411C514.992 94.9411 513.149 94.6942 511.538 96.4075C511.393 96.5672 511.19 96.6108 511.001 96.5672V96.5527Z" fill="#263238"/>
<path d="M565.597 155.878L550.504 151.856C550.504 151.856 535.701 188.314 530.477 190.695C523.366 193.933 505.341 205.142 497.693 210.543C497.272 212.343 497.606 217.164 498.564 218.47C511.582 216.104 536.63 206.463 541.855 201.57C553.769 190.405 565.612 155.878 565.612 155.878H565.597Z" fill="#E58A7B"/>
<path d="M555.061 515.345C554.234 515.345 553.465 515.199 552.986 514.793C552.609 514.459 552.463 514.009 552.536 513.428C552.594 512.993 552.826 512.789 553.015 512.702C554.248 512.078 557.659 514.241 558.036 514.503C558.123 514.561 558.167 514.662 558.138 514.764C558.109 514.866 558.036 514.953 557.935 514.967C557.165 515.156 556.062 515.359 555.047 515.359L555.061 515.345ZM553.566 513.08C553.436 513.08 553.32 513.094 553.233 513.138C553.16 513.181 553.073 513.239 553.058 513.443C553.015 513.849 553.102 514.169 553.349 514.386C553.915 514.895 555.337 514.953 557.209 514.59C556.019 513.878 554.408 513.08 553.566 513.08Z" fill="#0EA5DA"/>
<path d="M557.877 514.967C557.877 514.967 557.789 514.967 557.76 514.938C556.672 514.328 554.626 511.933 554.916 510.713C554.974 510.495 555.148 510.103 555.772 510.031C556.179 509.987 556.541 510.089 556.861 510.364C558.065 511.395 558.152 514.56 558.152 514.691C558.152 514.793 558.109 514.88 558.022 514.923C557.978 514.953 557.935 514.967 557.877 514.967ZM555.932 510.539C555.932 510.539 555.859 510.539 555.816 510.539C555.482 510.582 555.438 510.742 555.424 510.8C555.25 511.526 556.527 513.326 557.601 514.183C557.528 513.254 557.282 511.424 556.512 510.756C556.338 510.611 556.15 510.524 555.932 510.524V510.539Z" fill="#0EA5DA"/>
<path d="M516.53 513.544C515.456 513.806 514.44 513.878 513.787 513.53C513.367 513.312 513.134 512.934 513.076 512.426C513.047 512.121 513.149 511.86 513.367 511.657C514.542 510.611 519.273 511.729 519.81 511.86C519.912 511.889 519.984 511.976 519.999 512.092C519.999 512.209 519.941 512.31 519.839 512.354C518.954 512.76 517.706 513.268 516.53 513.559V513.544ZM514.165 511.816C513.962 511.86 513.816 511.933 513.7 512.02C513.613 512.107 513.57 512.194 513.584 512.325C513.628 512.673 513.773 512.905 514.049 513.065C514.818 513.486 516.603 513.152 518.91 512.194C517.285 511.86 515.181 511.57 514.15 511.816H514.165Z" fill="#0EA5DA"/>
<path d="M519.796 512.368C519.796 512.368 519.723 512.368 519.694 512.368C518.286 512.107 515.282 510.437 515.253 509.188C515.253 508.898 515.384 508.492 516.066 508.259C516.559 508.07 517.082 508.114 517.561 508.346C519.143 509.13 519.955 511.918 519.999 512.034C520.028 512.121 519.999 512.223 519.941 512.281C519.897 512.325 519.854 512.354 519.796 512.368ZM516.371 508.695C516.371 508.695 516.269 508.724 516.226 508.738C515.776 508.898 515.776 509.087 515.776 509.145C515.79 509.9 517.88 511.279 519.346 511.744C519.055 510.945 518.344 509.319 517.314 508.811C517.009 508.651 516.69 508.622 516.371 508.695Z" fill="#0EA5DA"/>
<path d="M498.912 209.686L483.776 216.656L482.02 220.924L487.607 224.685C487.607 224.685 498.041 223.552 501.016 216.844L498.898 209.686H498.912Z" fill="#E58A7B"/>
<path d="M499.551 218.717C498.607 213.098 496.75 210.528 496.735 210.499L499.115 208.714C499.202 208.83 501.408 211.806 502.482 218.224L499.536 218.717H499.551Z" fill="#263238"/>
<path d="M502.134 211.748C502.627 212.968 501.829 214.434 500.378 215.015C498.912 215.61 497.33 215.102 496.837 213.882C496.343 212.663 497.142 211.196 498.593 210.616C500.059 210.02 501.64 210.528 502.134 211.748Z" fill="#263238"/>
<path d="M473.544 222.289L475.561 224.322L489.145 218.514L483.776 216.656L473.544 222.289Z" fill="#E58A7B"/>
<path opacity="0.2" d="M531.87 487.657C531.957 487.627 533.931 493.217 533.931 493.217L513.846 501.653L510.682 495.758L531.87 487.642V487.657Z" fill="black"/>
<path opacity="0.2" d="M572.926 494.698C573.013 494.698 573.594 500.288 573.594 500.288H551.593L550.025 493.871L572.926 494.698Z" fill="black"/>
<path d="M569.53 151.711C573.521 164.59 557.978 182.172 557.978 182.172L536.427 173.374C536.427 173.374 539.46 164.023 545.236 151.493C551.796 137.25 565.496 138.716 569.516 151.711H569.53Z" fill="#0EA5DA"/>
<path opacity="0.2" d="M569.53 151.711C573.521 164.59 557.978 182.172 557.978 182.172L536.427 173.374C536.427 173.374 539.46 164.023 545.236 151.493C551.796 137.25 565.496 138.716 569.516 151.711H569.53Z" fill="black"/>
<path d="M355.383 22.679H346.11V24.1745H355.383V22.679Z" fill="#0EA5DA"/>
<path d="M475.436 81.8636L474.314 106.782L475.807 106.85L476.93 81.9309L475.436 81.8636Z" fill="#0EA5DA"/>
<path d="M472.543 29.3869H301.295L285.36 386.153H456.608L472.543 29.3869Z" fill="#0EA5DA"/>
<path opacity="0.56" d="M467.434 34.2798H296.186L280.252 391.046H451.5L467.434 34.2798Z" fill="#FAFAFA"/>
<path opacity="0.07" d="M462.326 39.1728H291.078L275.129 395.939H446.377L462.326 39.1728Z" fill="#0EA5DA"/>
<path d="M442.836 194.775H296.665L295.446 222.086H441.617L442.836 194.775Z" fill="white"/>
<path d="M377.05 174.869H297.551L297.014 187.08H376.513L377.05 174.869Z" fill="#0EA5DA"/>
<path d="M439.541 268.46H293.371L292.152 295.756H438.322L439.541 268.46Z" fill="white"/>
<path opacity="0.47" d="M412.737 332.606H314.443L312.977 365.332H411.271L412.737 332.606Z" fill="#0EA5DA"/>
<path d="M406.162 370.399H307.869C307.869 370.399 307.782 370.385 307.738 370.341C307.709 370.312 307.695 370.254 307.695 370.211L309.161 337.484C309.161 337.397 309.248 337.325 309.335 337.325H407.628C407.628 337.325 407.715 337.339 407.759 337.383C407.788 337.412 407.802 337.47 407.802 337.513L406.337 370.24C406.337 370.327 406.25 370.399 406.162 370.399ZM308.058 370.051H406.003L407.454 337.673H309.509L308.058 370.051Z" fill="white"/>
<path d="M359.882 248.54H294.256L293.719 260.75H359.33L359.882 248.54Z" fill="#0EA5DA"/>
<path d="M410.864 106.615C410.502 114.789 407.541 122.339 402.796 128.466C395.626 137.758 384.394 143.798 372.029 143.798C359.664 143.798 348.983 137.758 342.656 128.466C338.461 122.339 336.168 114.789 336.531 106.615C337.446 86.0698 354.832 69.4163 375.352 69.4163C395.873 69.4163 411.793 86.0698 410.864 106.615Z" fill="white"/>
<path d="M414.362 77.1986C414.26 79.3765 413.477 81.3801 412.214 83.0063C410.313 85.4746 407.323 87.0862 404.044 87.0862C400.764 87.0862 397.919 85.4746 396.236 83.0063C395.118 81.3801 394.509 79.3765 394.61 77.1986C394.857 71.7394 399.472 67.311 404.929 67.311C410.386 67.311 414.609 71.7394 414.362 77.1986Z" fill="#0EA5DA"/>
<path d="M312.411 208.438C312.31 210.848 310.264 212.808 307.84 212.808C305.416 212.808 303.559 210.848 303.66 208.438C303.762 206.027 305.808 204.067 308.232 204.067C310.655 204.067 312.513 206.027 312.411 208.438Z" fill="#263238"/>
<path d="M331.974 208.438C331.873 210.848 329.826 212.808 327.403 212.808C324.979 212.808 323.122 210.848 323.223 208.438C323.325 206.027 325.371 204.067 327.795 204.067C330.218 204.067 332.076 206.027 331.974 208.438Z" fill="#263238"/>
<path d="M351.552 208.438C351.45 210.848 349.404 212.808 346.98 212.808C344.557 212.808 342.699 210.848 342.801 208.438C342.902 206.027 344.949 204.067 347.372 204.067C349.796 204.067 351.653 206.027 351.552 208.438Z" fill="#263238"/>
<path d="M309.117 282.108C309.015 284.518 306.969 286.478 304.546 286.478C302.122 286.478 300.264 284.518 300.366 282.108C300.468 279.698 302.514 277.738 304.937 277.738C307.361 277.738 309.219 279.698 309.117 282.108Z" fill="#263238"/>
<path d="M328.68 282.108C328.578 284.518 326.532 286.478 324.109 286.478C321.685 286.478 319.827 284.518 319.929 282.108C320.031 279.698 322.077 277.738 324.5 277.738C326.924 277.738 328.782 279.698 328.68 282.108Z" fill="#263238"/>
<path d="M348.257 282.108C348.156 284.518 346.11 286.478 343.686 286.478C341.262 286.478 339.405 284.518 339.506 282.108C339.608 279.698 341.654 277.738 344.078 277.738C346.501 277.738 348.359 279.698 348.257 282.108Z" fill="#263238"/>
<path d="M367.835 282.108C367.733 284.518 365.687 286.478 363.263 286.478C360.84 286.478 358.982 284.518 359.084 282.108C359.185 279.698 361.232 277.738 363.655 277.738C366.079 277.738 367.936 279.698 367.835 282.108Z" fill="#263238"/>
<path d="M387.412 282.108C387.311 284.518 385.264 286.478 382.841 286.478C380.417 286.478 378.56 284.518 378.661 282.108C378.763 279.698 380.809 277.738 383.233 277.738C385.656 277.738 387.514 279.698 387.412 282.108Z" fill="#263238"/>
<path d="M389.284 94.1716C388.907 102.477 381.883 109.213 373.582 109.213C365.281 109.213 358.852 102.477 359.214 94.1716C359.592 85.8666 366.616 79.1297 374.917 79.1297C383.218 79.1297 389.647 85.8666 389.284 94.1716Z" fill="#0EA5DA"/>
<path d="M402.781 128.466C395.612 137.758 384.379 143.798 372.014 143.798C359.65 143.798 348.969 137.758 342.641 128.466C349.694 121.439 360.854 116.88 373.219 116.88C385.584 116.88 396.352 121.439 402.781 128.466Z" fill="#0EA5DA"/>
<path opacity="0.1" d="M389.284 94.1716C388.907 102.477 381.883 109.213 373.582 109.213C365.281 109.213 358.852 102.477 359.214 94.1716C359.592 85.8666 366.616 79.1297 374.917 79.1297C383.218 79.1297 389.647 85.8666 389.284 94.1716Z" fill="white"/>
<path opacity="0.1" d="M402.781 128.466C395.612 137.758 384.379 143.798 372.014 143.798C359.65 143.798 348.969 137.758 342.641 128.466C349.694 121.439 360.854 116.88 373.219 116.88C385.584 116.88 396.352 121.439 402.781 128.466Z" fill="white"/>
<path d="M189.258 228.663C187.879 231.683 186.443 234.993 185.165 238.231C183.888 241.498 182.611 244.765 181.494 248.09C179.331 254.725 177.3 261.418 176.313 268.126L175.979 270.26C175.95 270.522 175.979 270.885 176.081 271.349C176.298 272.279 176.864 273.513 177.677 274.718C179.317 277.172 181.624 279.654 184.121 281.948C186.617 284.286 189.316 286.522 192.131 288.656C194.918 290.805 197.849 292.896 200.723 294.856L198.024 299.952C191.116 296.932 184.687 293.317 178.461 288.787C175.399 286.449 172.38 283.938 169.695 280.54C168.374 278.827 167.083 276.896 166.227 274.34C165.82 273.063 165.53 271.625 165.53 270.072C165.53 269.709 165.559 269.215 165.588 268.968L165.661 268.242L165.806 266.805C166.589 259.11 168.302 251.705 170.551 244.532C171.683 240.946 172.888 237.403 174.267 233.919C175.674 230.42 177.067 227.051 178.823 223.523L189.273 228.663H189.258Z" fill="#E58A7B"/>
<path d="M198.691 293.985L208.952 288.787L206.296 300.068C206.296 300.068 199.257 302.043 195.977 298.616L198.691 293.999V293.985Z" fill="#E58A7B"/>
<path d="M218.341 290.631L215.613 299.952L206.296 300.054L208.952 288.772L218.341 290.631Z" fill="#E58A7B"/>
<path d="M232.825 174.303C232.825 174.303 233.71 177.57 235.118 180.038C233.899 181.171 232.825 180.779 232.825 180.779V174.303Z" fill="#DF5753"/>
<path d="M232.52 174.39C233.121 174.39 233.608 173.643 233.608 172.72C233.608 171.798 233.121 171.051 232.52 171.051C231.919 171.051 231.431 171.798 231.431 172.72C231.431 173.643 231.919 174.39 232.52 174.39Z" fill="#263238"/>
<path d="M232.259 171.109L234.465 170.47C234.465 170.47 233.333 172.198 232.259 171.109Z" fill="#263238"/>
<path d="M204.482 184.946C205.802 191.712 207.123 204.096 202.406 208.597C202.406 208.597 204.249 215.45 216.803 215.45C230.604 215.45 223.406 208.597 223.406 208.597C215.874 206.797 216.063 201.207 217.383 195.951L204.496 184.946H204.482Z" fill="#E58A7B"/>
<path d="M200.81 169.57C201.507 180.851 201.55 185.643 207.254 191.436C215.816 200.147 229.53 196.822 232.215 185.57C234.639 175.436 233.1 158.68 222.056 154.194C211.186 149.766 200.113 158.288 200.81 169.57Z" fill="#E58A7B"/>
<path d="M201.927 156.807C196.268 158.869 188.721 157.33 191.682 174.797C194.816 193.294 189.998 199.378 189.998 199.378C189.998 199.378 211.462 203.951 233.376 199.102C233.376 199.102 226.686 187.399 228.558 178.862C230.953 167.973 229.051 163.936 229.051 163.936C229.051 163.936 209.866 153.904 201.913 156.807H201.927Z" fill="#263238"/>
<path d="M225.873 175.45C225.844 177.686 226.628 179.936 227.644 181.505C229.167 183.857 230.982 182.898 231.446 180.459C231.852 178.267 231.548 174.39 229.588 172.88C227.658 171.399 225.888 172.88 225.873 175.45Z" fill="#E58A7B"/>
<path d="M197.008 158.782C195.382 154.223 203.132 147.196 219.531 150.114C235.93 153.032 236.641 166.68 236.641 166.68L233.318 162.746L233.463 166.898L216.614 170.136L196.993 158.797L197.008 158.782Z" fill="#263238"/>
<path d="M198.401 209.367C198.169 207.973 199.112 206.652 200.505 206.434C205.614 205.592 217.209 203.879 223.058 204.692C227.397 205.287 228.543 207.828 228.732 209.904C228.863 211.443 227.6 212.735 226.062 212.663L200.824 211.516C199.605 211.458 198.604 210.557 198.415 209.367H198.401Z" fill="#0EA5DA"/>
<path opacity="0.6" d="M198.401 209.367C198.169 207.973 199.112 206.652 200.505 206.434C205.614 205.592 217.209 203.879 223.058 204.692C227.397 205.287 228.543 207.828 228.732 209.904C228.863 211.443 227.6 212.735 226.062 212.663L200.824 211.516C199.605 211.458 198.604 210.557 198.415 209.367H198.401Z" fill="black"/>
<path d="M212.986 463.032L222.347 469.522L238.006 448.295L228.645 441.79L212.986 463.032Z" fill="#E58A7B"/>
<path d="M191.159 462.596L201.042 468.244L214.902 445.783L205.019 440.15L191.159 462.596Z" fill="#E58A7B"/>
<path d="M237.991 448.295L229.922 459.242L220.562 452.738L228.645 441.79L237.991 448.295Z" fill="#CF6F64"/>
<path d="M205.004 440.15L214.902 445.783L207.761 457.355L197.864 451.721L205.004 440.15Z" fill="#CF6F64"/>
<path d="M220.881 280.279C220.881 280.279 257.423 326.363 250.573 370.414C245.03 406 212.971 454.19 212.971 454.19L197.893 446.698C197.893 446.698 214.278 414.668 225.031 380.723C229.545 366.479 227.615 350.798 219.183 338.472C200.665 311.422 171.016 327.51 190.97 280.279H220.895H220.881Z" fill="#0EA5DA"/>
<path opacity="0.6" d="M220.881 280.279C220.881 280.279 257.423 326.363 250.573 370.414C245.03 406 212.971 454.19 212.971 454.19L197.893 446.698C197.893 446.698 214.278 414.668 225.031 380.723C229.545 366.479 227.615 350.798 219.183 338.472C200.665 311.422 171.016 327.51 190.97 280.279H220.895H220.881Z" fill="black"/>
<path opacity="0.4" d="M238.804 309.883L233.492 304.598C233.492 305.019 243.782 368.555 246.67 386.414C248.411 380.94 249.761 375.539 250.559 370.399C253.911 348.824 246.858 326.755 238.789 309.869L238.804 309.883Z" fill="black"/>
<path d="M237.193 280.279C237.193 280.279 281.195 338.181 282.429 372.911C283.459 402.008 234.494 458.212 234.494 458.212L220.271 449.006C220.271 449.006 248.905 409.049 256.117 376.396C253.374 344.062 194.381 280.293 194.381 280.293H237.193V280.279Z" fill="#0EA5DA"/>
<path opacity="0.6" d="M237.193 280.279C237.193 280.279 281.195 338.181 282.429 372.911C283.459 402.008 234.494 458.212 234.494 458.212L220.271 449.006C220.271 449.006 248.905 409.049 256.117 376.396C253.374 344.062 194.381 280.293 194.381 280.293H237.193V280.279Z" fill="black"/>
<path d="M182.756 211.196C178.04 212.314 173.541 229.418 173.541 229.418L191.914 241.687C191.914 241.687 198.038 228.155 195.905 222.231C193.684 216.06 188.707 209.773 182.756 211.182V211.196Z" fill="#0EA5DA"/>
<path opacity="0.2" d="M186.356 222.202L185.078 237.113L191.914 241.701C191.914 241.701 195.121 234.616 196.079 228.431L186.356 222.202Z" fill="black"/>
<path d="M242.635 211.516C242.635 211.516 248.063 213.432 237.193 280.264H190.956C191.725 261.433 191.754 249.832 182.756 211.182C182.756 211.182 192.451 209.077 202.392 208.597C210.171 208.22 216.542 207.973 223.391 208.597C232.404 209.425 242.635 211.516 242.635 211.516Z" fill="#0EA5DA"/>
<path d="M247.337 222.129C248.382 225.033 249.5 228.155 250.646 231.175C251.749 234.224 252.91 237.273 254.086 240.307L257.641 249.425L258.541 251.705L258.991 252.837L259.223 253.404C259.267 253.505 259.252 253.491 259.237 253.491C259.179 253.462 259.121 253.171 258.222 252.591C257.786 252.315 257.046 252.053 256.32 252.039C255.609 252.01 255.029 252.184 254.71 252.329C254.057 252.649 254.042 252.779 254.057 252.75C254.1 252.736 254.231 252.605 254.376 252.416C255.014 251.661 255.769 250.34 256.451 249.033C257.133 247.698 257.786 246.275 258.439 244.837C259.716 241.948 260.892 238.928 262.082 235.893C263.257 232.859 264.36 229.781 265.463 226.688L268.772 217.425L274.36 218.833C273.257 225.454 271.82 231.959 270.122 238.463C269.295 241.73 268.322 244.968 267.219 248.235C266.668 249.875 266.058 251.502 265.347 253.171C264.607 254.856 263.882 256.496 262.59 258.427C262.256 258.921 261.864 259.429 261.327 259.995C260.761 260.547 260.094 261.229 258.686 261.868C257.975 262.173 257.003 262.435 255.871 262.391C254.739 262.362 253.607 261.955 252.808 261.462C251.198 260.431 250.646 259.458 250.167 258.718C249.949 258.355 249.761 257.963 249.63 257.701L249.354 257.135L248.803 256.003L247.7 253.752C246.263 250.732 244.856 247.698 243.535 244.62C242.214 241.541 240.937 238.449 239.689 235.327C238.499 232.162 237.324 229.098 236.264 225.73L247.337 222.115V222.129Z" fill="#E58A7B"/>
<path d="M242.635 211.516C248.193 212.837 254.434 229.273 254.434 229.273L237.919 243.356C237.919 243.356 227.208 225.44 229.385 219.53C231.635 213.374 235.379 209.788 242.635 211.53V211.516Z" fill="#0EA5DA"/>
<path d="M271.355 212.329L277.146 207.479L281.18 213.766L278.205 219.022C278.205 219.022 273.474 223.349 269.28 221.157C267.931 218.093 268.772 214.492 271.341 212.343L271.355 212.329Z" fill="#E58A7B"/>
<path d="M287.668 207.494L287.232 209.062L278.046 210.616L277.146 207.479L287.668 207.494Z" fill="#E58A7B"/>
<path d="M235.684 458.952L219.11 448.222L222.085 443.068L240.705 454.524L235.684 458.952Z" fill="#0EA5DA"/>
<path d="M207.5 467.475C206.18 467.475 204.453 466.633 203.393 466.052C203.292 465.994 203.248 465.892 203.263 465.79C203.263 465.689 203.35 465.587 203.451 465.558C203.901 465.413 207.834 464.208 208.937 465.152C209.111 465.297 209.314 465.573 209.242 466.023C209.155 466.633 208.879 467.054 208.429 467.286C208.168 467.417 207.849 467.475 207.5 467.475ZM204.235 465.892C206.035 466.807 207.486 467.155 208.182 466.807C208.473 466.662 208.647 466.386 208.705 465.965C208.734 465.732 208.661 465.631 208.574 465.573C207.994 465.079 205.817 465.457 204.22 465.907L204.235 465.892Z" fill="#263238"/>
<path d="M203.538 466.095C203.466 466.095 203.393 466.066 203.35 466.008C203.277 465.936 203.263 465.834 203.277 465.747C203.321 465.616 204.22 462.466 205.715 461.74C206.107 461.551 206.513 461.536 206.905 461.696C207.529 461.957 207.587 462.422 207.573 462.669C207.471 463.976 204.815 465.776 203.596 466.081C203.582 466.081 203.553 466.081 203.538 466.081V466.095ZM206.354 462.132C206.223 462.132 206.093 462.161 205.947 462.233C205.062 462.669 204.307 464.368 203.959 465.399C205.236 464.861 206.978 463.438 207.036 462.64C207.036 462.509 207.021 462.349 206.702 462.204C206.586 462.161 206.47 462.132 206.354 462.132Z" fill="#263238"/>
<path d="M228.239 473.747C226.599 473.747 224.32 471.642 223.072 470.35C222.985 470.263 222.971 470.146 223.029 470.045C223.087 469.943 223.217 469.885 223.304 469.9C223.885 469.972 228.921 470.655 229.646 472.077C229.777 472.353 229.777 472.644 229.617 472.934C229.356 473.399 228.964 473.675 228.471 473.733C228.398 473.733 228.326 473.733 228.253 473.733L228.239 473.747ZM224.03 470.553C225.859 472.339 227.47 473.326 228.384 473.195C228.703 473.152 228.95 472.978 229.124 472.658C229.197 472.542 229.197 472.426 229.138 472.324C228.747 471.555 226.062 470.872 224.016 470.553H224.03Z" fill="#263238"/>
<path d="M224.19 470.509C223.812 470.509 223.479 470.48 223.217 470.437C223.13 470.422 223.043 470.35 223.014 470.263C222.985 470.175 223 470.074 223.058 470.001C223.145 469.9 225.104 467.533 226.962 467.373C227.542 467.33 228.036 467.489 228.456 467.838C229.022 468.332 228.993 468.767 228.848 469.043C228.384 470.016 225.873 470.509 224.19 470.509ZM223.812 469.958C225.438 470.045 228.021 469.508 228.369 468.796C228.398 468.738 228.485 468.564 228.108 468.23C227.789 467.969 227.426 467.852 227.02 467.881C225.801 467.983 224.436 469.275 223.827 469.943L223.812 469.958Z" fill="#263238"/>
<path d="M203.93 464.571L191.624 461.086C191.174 460.956 190.724 461.173 190.535 461.595L186.385 470.945C185.949 471.918 186.559 473.123 187.589 473.384C191.899 474.517 194.047 474.851 199.46 476.39C202.784 477.333 207.558 479.047 212.159 480.353C216.658 481.631 218.283 477.174 216.484 476.215C208.415 471.932 207.776 469.014 205.57 465.762C205.178 465.181 204.583 464.76 203.93 464.571Z" fill="#0EA5DA"/>
<path d="M223.406 468.665L212.899 461.362C212.522 461.101 212.028 461.144 211.709 461.478L204.743 468.97C204.017 469.74 204.191 471.075 205.091 471.671C208.792 474.154 210.708 475.17 215.337 478.379C218.182 480.353 223.856 484.738 227.774 487.453C231.62 490.125 234.61 486.437 233.216 484.956C226.976 478.292 225.612 474.11 224.582 470.32C224.393 469.638 223.972 469.043 223.421 468.665H223.406Z" fill="#0EA5DA"/>
<path d="M214.887 455.148L195.948 445.725L197.907 440.6L218.138 450.516L214.887 455.148Z" fill="#0EA5DA"/>
<path d="M190.259 277.564L188.663 281.702C188.503 282.021 188.881 282.355 189.418 282.355H237.425C237.846 282.355 238.194 282.152 238.209 281.89L238.63 277.752C238.659 277.462 238.296 277.23 237.846 277.23H191.014C190.666 277.23 190.361 277.375 190.259 277.578V277.564Z" fill="#0EA5DA"/>
<path opacity="0.4" d="M190.259 277.564L188.663 281.702C188.503 282.021 188.881 282.355 189.418 282.355H237.425C237.846 282.355 238.194 282.152 238.209 281.89L238.63 277.752C238.659 277.462 238.296 277.23 237.846 277.23H191.014C190.666 277.23 190.361 277.375 190.259 277.578V277.564Z" fill="white"/>
<path d="M197.82 282.791H196.572C196.326 282.791 196.137 282.66 196.151 282.5L196.746 277.114C196.761 276.954 196.979 276.823 197.225 276.823H198.473C198.72 276.823 198.909 276.954 198.894 277.114L198.299 282.5C198.285 282.66 198.067 282.791 197.82 282.791Z" fill="#0EA5DA"/>
<path d="M227.426 282.791H226.178C225.931 282.791 225.742 282.66 225.757 282.5L226.352 277.114C226.367 276.954 226.584 276.823 226.831 276.823H228.079C228.326 276.823 228.514 276.954 228.5 277.114L227.905 282.5C227.89 282.66 227.673 282.791 227.426 282.791Z" fill="#0EA5DA"/>
<g style="mix-blend-mode:multiply">
<path d="M196.717 528.688C218.19 528.688 235.597 527.427 235.597 525.871C235.597 524.315 218.19 523.054 196.717 523.054C175.245 523.054 157.838 524.315 157.838 525.871C157.838 527.427 175.245 528.688 196.717 528.688Z" fill="#F5F5F5"/>
</g>
<path d="M220.402 521.893C213.523 519.889 205.947 517.319 201.274 514.59C201.144 514.517 201.013 514.459 200.868 514.386V483.272H214.699C216.991 483.272 218.835 481.413 218.835 479.134C218.835 476.854 216.977 474.996 214.699 474.996H200.868V332.969H192.581V474.996H178.751C176.458 474.996 174.615 476.854 174.615 479.134C174.615 481.413 176.472 483.272 178.751 483.272H192.581V514.386C192.451 514.459 192.306 514.517 192.175 514.59C187.487 517.334 179.926 519.904 173.048 521.893C170.784 522.546 171.262 525.871 173.614 525.871H219.836C222.187 525.871 222.666 522.546 220.402 521.893Z" fill="#E0E0E0"/>
<path d="M222.535 318.493H170.929C166.777 318.493 163.411 321.86 163.411 326.014V341.361C163.411 345.515 166.777 348.882 170.929 348.882H222.535C226.687 348.882 230.053 345.515 230.053 341.361V326.014C230.053 321.86 226.687 318.493 222.535 318.493Z" fill="#0EA5DA"/>
<path d="M170.45 348.882V351.524C170.45 353.702 172.815 355.488 175.718 355.488H217.746C220.649 355.488 223.014 353.702 223.014 351.524V348.882H170.45Z" fill="#0EA5DA"/>
<path opacity="0.3" d="M170.45 348.882V351.524C170.45 353.702 172.815 355.488 175.718 355.488H217.746C220.649 355.488 223.014 353.702 223.014 351.524V348.882H170.45Z" fill="white"/>
</svg>
